STARTFONT 2.1
COMMENT Recovered from ar1.1:BLKF10 1 (Xerox Alto CONVERT font source (AL) recovered from MIT CADR AR1 ARC!!!)
FONT MIT-CADR-BLKF10-AL-AR1
SIZE 14 72 72
FONTBOUNDINGBOX 16 14 0 -3
STARTPROPERTIES 2
FONT_ASCENT 11
FONT_DESCENT 3
ENDPROPERTIES
CHARS 128
STARTCHAR C0000
ENCODING -1 0
SWIDTH 0 0
DWIDTH 0 0
BBX 0 14 0 -3
BITMAP
00
00
00
00
00
00
00
00
00
00
00
00
00
00
ENDCHAR
STARTCHAR C0001
ENCODING -1 1
SWIDTH 500 0
DWIDTH 7 0
BBX 7 14 0 -3
BITMAP
00
00
00
06
0C
18
3E
7E
00
7E
7E
00
00
00
ENDCHAR
STARTCHAR C0002
ENCODING -1 2
SWIDTH 571 0
DWIDTH 8 0
BBX 8 14 0 -3
BITMAP
00
00
00
00
00
00
00
00
00
00
40
70
7C
7F
ENDCHAR
STARTCHAR C0003
ENCODING -1 3
SWIDTH 357 0
DWIDTH 5 0
BBX 5 14 0 -3
BITMAP
00
00
30
48
48
30
00
30
48
48
30
00
00
00
ENDCHAR
STARTCHAR C0004
ENCODING -1 4
SWIDTH 1071 0
DWIDTH 15 0
BBX 15 14 0 -3
BITMAP
0000
7FFE
7FFE
7FFE
700E
700E
700E
700E
700E
700E
7FFE
7FFE
7FFE
0000
ENDCHAR
STARTCHAR C0005
ENCODING -1 5
SWIDTH 643 0
DWIDTH 9 0
BBX 9 14 0 -3
BITMAP
0000
3F00
7F80
6180
6D80
6D80
6D80
6D80
6180
7F80
3F00
0000
0000
0000
ENDCHAR
STARTCHAR C0006
ENCODING -1 6
SWIDTH 714 0
DWIDTH 10 0
BBX 10 14 0 -3
BITMAP
0000
1F00
3F80
67C0
6CC0
6CC0
6FC0
6780
7000
3F00
1F00
0000
0000
0000
ENDCHAR
STARTCHAR C0007
ENCODING -1 7
SWIDTH 214 0
DWIDTH 3 0
BBX 3 14 0 -3
BITMAP
00
00
00
00
00
60
60
00
00
00
00
00
00
00
ENDCHAR
STARTCHAR C0008
ENCODING -1 8
SWIDTH 0 0
DWIDTH 0 0
BBX 0 14 0 -3
BITMAP
00
00
00
00
00
00
00
00
00
00
00
00
00
00
ENDCHAR
STARTCHAR C0009
ENCODING -1 9
SWIDTH 0 0
DWIDTH 0 0
BBX 0 14 0 -3
BITMAP
00
00
00
00
00
00
00
00
00
00
00
00
00
00
ENDCHAR
STARTCHAR C000A
ENCODING -1 10
SWIDTH 0 0
DWIDTH 0 0
BBX 0 14 0 -3
BITMAP
00
00
00
00
00
00
00
00
00
00
00
00
00
00
ENDCHAR
STARTCHAR C000B
ENCODING -1 11
SWIDTH 500 0
DWIDTH 7 0
BBX 7 14 0 -3
BITMAP
00
1C
1C
1C
08
08
1C
1C
1C
3E
3E
00
00
00
ENDCHAR
STARTCHAR C000C
ENCODING -1 12
SWIDTH 0 0
DWIDTH 0 0
BBX 0 14 0 -3
BITMAP
00
00
00
00
00
00
00
00
00
00
00
00
00
00
ENDCHAR
STARTCHAR C000D
ENCODING -1 13
SWIDTH 0 0
DWIDTH 0 0
BBX 0 14 0 -3
BITMAP
00
00
00
00
00
00
00
00
00
00
00
00
00
00
ENDCHAR
STARTCHAR C000E
ENCODING -1 14
SWIDTH 500 0
DWIDTH 7 0
BBX 7 14 0 -3
BITMAP
00
00
06
0C
7E
7E
18
7E
7E
30
60
00
00
00
ENDCHAR
STARTCHAR C000F
ENCODING -1 15
SWIDTH 429 0
DWIDTH 6 0
BBX 6 14 0 -3
BITMAP
00
6C
6C
6C
6C
48
00
00
00
00
00
00
00
00
ENDCHAR
STARTCHAR C0010
ENCODING -1 16
SWIDTH 500 0
DWIDTH 7 0
BBX 7 14 0 -3
BITMAP
00
06
06
0C
2C
7C
7C
2C
0C
06
06
00
00
00
ENDCHAR
STARTCHAR C0011
ENCODING -1 17
SWIDTH 214 0
DWIDTH 3 0
BBX 3 14 0 -3
BITMAP
00
60
60
60
60
60
60
00
00
60
60
00
00
00
ENDCHAR
STARTCHAR C0012
ENCODING -1 18
SWIDTH 357 0
DWIDTH 5 0
BBX 5 14 0 -3
BITMAP
00
30
48
48
30
00
00
00
00
00
00
00
00
00
ENDCHAR
STARTCHAR C0013
ENCODING -1 19
SWIDTH 571 0
DWIDTH 8 0
BBX 8 14 0 -3
BITMAP
00
60
60
60
4E
5F
18
0E
03
1F
0E
00
00
00
ENDCHAR
STARTCHAR C0014
ENCODING -1 20
SWIDTH 1143 0
DWIDTH 16 0
BBX 16 14 0 -3
BITMAP
0000
FE00
FE00
FE00
FE00
FE00
FE00
FE00
FE00
FE00
FE00
0000
0000
0000
ENDCHAR
STARTCHAR C0015
ENCODING -1 21
SWIDTH 357 0
DWIDTH 5 0
BBX 5 14 0 -3
BITMAP
00
78
78
00
00
00
00
00
00
00
00
00
00
00
ENDCHAR
STARTCHAR C0016
ENCODING -1 22
SWIDTH 571 0
DWIDTH 8 0
BBX 8 14 0 -3
BITMAP
00
7B
4F
4E
7E
0C
18
3F
39
79
6F
00
00
00
ENDCHAR
STARTCHAR C0017
ENCODING -1 23
SWIDTH 1071 0
DWIDTH 15 0
BBX 15 14 0 -3
BITMAP
0000
0100
01C0
01F0
7FFC
7FFE
7FFE
7FFC
01F0
01C0
0100
0000
0000
0000
ENDCHAR
STARTCHAR C0018
ENCODING -1 24
SWIDTH 1071 0
DWIDTH 15 0
BBX 15 14 0 -3
BITMAP
0000
0000
0000
0000
7FFE
7FFE
7FFE
7FFE
0000
0000
0000
0000
0000
0000
ENDCHAR
STARTCHAR C0019
ENCODING -1 25
SWIDTH 1071 0
DWIDTH 15 0
BBX 15 14 0 -3
BITMAP
0000
4040
6060
7070
7FF8
3FFC
3FFC
7FF8
7070
6060
4040
0000
0000
0000
ENDCHAR
STARTCHAR C001A
ENCODING -1 26
SWIDTH 500 0
DWIDTH 7 0
BBX 7 14 0 -3
BITMAP
00
00
00
60
30
18
7C
7E
00
7E
7E
00
00
00
ENDCHAR
STARTCHAR C001B
ENCODING -1 27
SWIDTH 500 0
DWIDTH 7 0
BBX 7 14 0 -3
BITMAP
18
18
3C
7E
5A
78
3C
1E
5A
7E
3C
18
18
00
ENDCHAR
STARTCHAR C001C
ENCODING -1 28
SWIDTH 643 0
DWIDTH 9 0
BBX 9 14 0 -3
BITMAP
0000
1C00
3E00
3600
3600
3C00
7D80
6700
6600
7F00
3D80
0000
0000
0000
ENDCHAR
STARTCHAR C001D
ENCODING -1 29
SWIDTH 0 0
DWIDTH 0 0
BBX 0 14 0 -3
BITMAP
00
00
00
00
00
00
00
00
00
00
00
00
00
00
ENDCHAR
STARTCHAR C001E
ENCODING -1 30
SWIDTH 429 0
DWIDTH 6 0
BBX 6 14 0 -3
BITMAP
00
7C
7C
7C
38
38
10
00
38
38
38
00
00
00
ENDCHAR
STARTCHAR C001F
ENCODING -1 31
SWIDTH 1071 0
DWIDTH 15 0
BBX 15 14 0 -3
BITMAP
0000
0000
0000
0000
5554
2AAA
5554
2AAA
0000
0000
0000
0000
0000
0000
ENDCHAR
STARTCHAR C0020
ENCODING -1 32
SWIDTH 214 0
DWIDTH 3 0
BBX 3 14 0 -3
BITMAP
00
00
00
00
00
00
00
00
00
00
00
00
00
00
ENDCHAR
STARTCHAR C0021
ENCODING -1 33
SWIDTH 714 0
DWIDTH 10 0
BBX 10 14 0 -3
BITMAP
0000
0400
0E00
1F00
3F80
7FC0
1B00
1B00
1B00
1B00
1B00
0000
0000
0000
ENDCHAR
STARTCHAR C0022
ENCODING -1 34
SWIDTH 1071 0
DWIDTH 15 0
BBX 15 14 0 -3
BITMAP
0000
0000
7FFE
7FFE
7FE0
7F80
7F00
7E00
7C00
7C00
7000
0000
0000
0000
ENDCHAR
STARTCHAR C0023
ENCODING -1 35
SWIDTH 857 0
DWIDTH 12 0
BBX 12 14 0 -3
BITMAP
0000
0330
0660
3FF0
3FF0
0CC0
1980
7FE0
7FE0
3300
6600
0000
0000
0000
ENDCHAR
STARTCHAR C0024
ENCODING -1 36
SWIDTH 643 0
DWIDTH 9 0
BBX 9 14 0 -3
BITMAP
0000
3300
3300
6180
6180
6180
6180
6180
6180
3300
3300
0000
0000
0000
ENDCHAR
STARTCHAR C0025
ENCODING -1 37
SWIDTH 714 0
DWIDTH 10 0
BBX 10 14 0 -3
BITMAP
0000
0000
00C0
03C0
0F80
3F80
7F80
3F80
0F80
03C0
00C0
0000
0000
0000
ENDCHAR
STARTCHAR C0026
ENCODING -1 38
SWIDTH 786 0
DWIDTH 11 0
BBX 11 14 0 -3
BITMAP
0000
79E0
79E0
6060
6060
6060
6060
6060
6060
79E0
79E0
0000
0000
0000
ENDCHAR
STARTCHAR C0027
ENCODING -1 39
SWIDTH 214 0
DWIDTH 3 0
BBX 3 14 0 -3
BITMAP
00
60
60
60
60
40
00
00
00
00
00
00
00
00
ENDCHAR
STARTCHAR C0028
ENCODING -1 40
SWIDTH 286 0
DWIDTH 4 0
BBX 4 14 0 -3
BITMAP
00
30
30
70
60
60
60
60
70
30
30
00
00
00
ENDCHAR
STARTCHAR C0029
ENCODING -1 41
SWIDTH 286 0
DWIDTH 4 0
BBX 4 14 0 -3
BITMAP
00
60
60
70
30
30
30
30
70
60
60
00
00
00
ENDCHAR
STARTCHAR C002A
ENCODING -1 42
SWIDTH 571 0
DWIDTH 8 0
BBX 8 14 0 -3
BITMAP
00
00
00
08
2A
1C
7F
1C
2A
08
00
00
00
00
ENDCHAR
STARTCHAR C002B
ENCODING -1 43
SWIDTH 500 0
DWIDTH 7 0
BBX 7 14 0 -3
BITMAP
00
00
00
00
18
18
7E
7E
18
18
00
00
00
00
ENDCHAR
STARTCHAR C002C
ENCODING -1 44
SWIDTH 214 0
DWIDTH 3 0
BBX 3 14 0 -3
BITMAP
00
00
00
00
00
00
00
00
60
60
20
60
40
00
ENDCHAR
STARTCHAR C002D
ENCODING -1 45
SWIDTH 429 0
DWIDTH 6 0
BBX 6 14 0 -3
BITMAP
00
00
00
00
00
00
7C
7C
00
00
00
00
00
00
ENDCHAR
STARTCHAR C002E
ENCODING -1 46
SWIDTH 357 0
DWIDTH 5 0
BBX 5 14 0 -3
BITMAP
00
00
00
00
00
00
00
00
00
70
70
00
00
00
ENDCHAR
STARTCHAR C002F
ENCODING -1 47
SWIDTH 500 0
DWIDTH 7 0
BBX 7 14 0 -3
BITMAP
00
06
06
0C
0C
18
18
30
30
60
60
00
00
00
ENDCHAR
STARTCHAR C0030
ENCODING -1 48
SWIDTH 429 0
DWIDTH 6 0
BBX 6 14 0 -3
BITMAP
00
38
7C
6C
6C
6C
6C
6C
6C
7C
38
00
00
00
ENDCHAR
STARTCHAR C0031
ENCODING -1 49
SWIDTH 286 0
DWIDTH 4 0
BBX 4 14 0 -3
BITMAP
00
30
70
70
30
30
30
30
30
30
30
00
00
00
ENDCHAR
STARTCHAR C0032
ENCODING -1 50
SWIDTH 429 0
DWIDTH 6 0
BBX 6 14 0 -3
BITMAP
00
38
7C
6C
0C
1C
38
70
60
7C
7C
00
00
00
ENDCHAR
STARTCHAR C0033
ENCODING -1 51
SWIDTH 429 0
DWIDTH 6 0
BBX 6 14 0 -3
BITMAP
00
38
7C
6C
0C
38
3C
0C
6C
7C
38
00
00
00
ENDCHAR
STARTCHAR C0034
ENCODING -1 52
SWIDTH 500 0
DWIDTH 7 0
BBX 7 14 0 -3
BITMAP
00
0C
1C
1C
3C
2C
6C
7E
7E
0C
0C
00
00
00
ENDCHAR
STARTCHAR C0035
ENCODING -1 53
SWIDTH 429 0
DWIDTH 6 0
BBX 6 14 0 -3
BITMAP
00
7C
7C
60
78
7C
4C
0C
6C
7C
38
00
00
00
ENDCHAR
STARTCHAR C0036
ENCODING -1 54
SWIDTH 429 0
DWIDTH 6 0
BBX 6 14 0 -3
BITMAP
00
0C
3C
30
78
7C
6C
6C
6C
7C
38
00
00
00
ENDCHAR
STARTCHAR C0037
ENCODING -1 55
SWIDTH 429 0
DWIDTH 6 0
BBX 6 14 0 -3
BITMAP
00
7C
7C
0C
1C
18
38
30
30
30
30
00
00
00
ENDCHAR
STARTCHAR C0038
ENCODING -1 56
SWIDTH 429 0
DWIDTH 6 0
BBX 6 14 0 -3
BITMAP
00
38
7C
6C
6C
38
7C
6C
6C
7C
38
00
00
00
ENDCHAR
STARTCHAR C0039
ENCODING -1 57
SWIDTH 429 0
DWIDTH 6 0
BBX 6 14 0 -3
BITMAP
00
38
7C
6C
6C
6C
7C
3C
0C
38
38
00
00
00
ENDCHAR
STARTCHAR C003A
ENCODING -1 58
SWIDTH 357 0
DWIDTH 5 0
BBX 5 14 0 -3
BITMAP
00
00
00
00
70
70
00
00
70
70
00
00
00
00
ENDCHAR
STARTCHAR C003B
ENCODING -1 59
SWIDTH 214 0
DWIDTH 3 0
BBX 3 14 0 -3
BITMAP
00
00
00
00
60
60
00
00
60
60
20
60
40
00
ENDCHAR
STARTCHAR C003C
ENCODING -1 60
SWIDTH 429 0
DWIDTH 6 0
BBX 6 14 0 -3
BITMAP
00
00
00
00
0C
1C
38
70
38
1C
0C
00
00
00
ENDCHAR
STARTCHAR C003D
ENCODING -1 61
SWIDTH 429 0
DWIDTH 6 0
BBX 6 14 0 -3
BITMAP
00
00
00
00
00
7C
7C
00
7C
7C
00
00
00
00
ENDCHAR
STARTCHAR C003E
ENCODING -1 62
SWIDTH 429 0
DWIDTH 6 0
BBX 6 14 0 -3
BITMAP
00
00
00
00
60
70
38
1C
38
70
60
00
00
00
ENDCHAR
STARTCHAR C003F
ENCODING -1 63
SWIDTH 714 0
DWIDTH 10 0
BBX 10 14 0 -3
BITMAP
0000
0000
0400
0600
7F00
7F80
07C0
7F80
7F00
0600
0400
0000
0000
0000
ENDCHAR
STARTCHAR C0040
ENCODING -1 64
SWIDTH 786 0
DWIDTH 11 0
BBX 11 14 0 -3
BITMAP
0000
0F00
3FC0
3FC0
7FE0
7FE0
7FE0
7FE0
3FC0
3FC0
0F00
0000
0000
0000
ENDCHAR
STARTCHAR C0041
ENCODING -1 65
SWIDTH 429 0
DWIDTH 6 0
BBX 6 14 0 -3
BITMAP
00
10
38
38
38
6C
6C
7C
6C
6C
44
00
00
00
ENDCHAR
STARTCHAR C0042
ENCODING -1 66
SWIDTH 429 0
DWIDTH 6 0
BBX 6 14 0 -3
BITMAP
00
78
7C
6C
6C
78
7C
6C
6C
7C
78
00
00
00
ENDCHAR
STARTCHAR C0043
ENCODING -1 67
SWIDTH 429 0
DWIDTH 6 0
BBX 6 14 0 -3
BITMAP
00
38
7C
6C
6C
60
60
6C
6C
7C
38
00
00
00
ENDCHAR
STARTCHAR C0044
ENCODING -1 68
SWIDTH 429 0
DWIDTH 6 0
BBX 6 14 0 -3
BITMAP
00
78
7C
6C
6C
6C
6C
6C
6C
7C
78
00
00
00
ENDCHAR
STARTCHAR C0045
ENCODING -1 69
SWIDTH 357 0
DWIDTH 5 0
BBX 5 14 0 -3
BITMAP
00
78
78
60
60
78
78
60
60
78
78
00
00
00
ENDCHAR
STARTCHAR C0046
ENCODING -1 70
SWIDTH 357 0
DWIDTH 5 0
BBX 5 14 0 -3
BITMAP
00
78
78
60
60
78
78
60
60
60
60
00
00
00
ENDCHAR
STARTCHAR C0047
ENCODING -1 71
SWIDTH 429 0
DWIDTH 6 0
BBX 6 14 0 -3
BITMAP
00
38
7C
6C
60
60
6C
6C
6C
7C
3C
00
00
00
ENDCHAR
STARTCHAR C0048
ENCODING -1 72
SWIDTH 429 0
DWIDTH 6 0
BBX 6 14 0 -3
BITMAP
00
6C
6C
6C
6C
7C
7C
6C
6C
6C
6C
00
00
00
ENDCHAR
STARTCHAR C0049
ENCODING -1 73
SWIDTH 214 0
DWIDTH 3 0
BBX 3 14 0 -3
BITMAP
00
60
60
60
60
60
60
60
60
60
60
00
00
00
ENDCHAR
STARTCHAR C004A
ENCODING -1 74
SWIDTH 429 0
DWIDTH 6 0
BBX 6 14 0 -3
BITMAP
00
0C
0C
0C
0C
0C
0C
0C
6C
7C
38
00
00
00
ENDCHAR
STARTCHAR C004B
ENCODING -1 75
SWIDTH 429 0
DWIDTH 6 0
BBX 6 14 0 -3
BITMAP
00
64
6C
6C
78
70
78
78
6C
6C
64
00
00
00
ENDCHAR
STARTCHAR C004C
ENCODING -1 76
SWIDTH 357 0
DWIDTH 5 0
BBX 5 14 0 -3
BITMAP
00
60
60
60
60
60
60
60
60
78
78
00
00
00
ENDCHAR
STARTCHAR C004D
ENCODING -1 77
SWIDTH 643 0
DWIDTH 9 0
BBX 9 14 0 -3
BITMAP
0000
4080
6180
7380
7380
7F80
7F80
6D80
6D80
6180
6180
0000
0000
0000
ENDCHAR
STARTCHAR C004E
ENCODING -1 78
SWIDTH 500 0
DWIDTH 7 0
BBX 7 14 0 -3
BITMAP
00
46
66
66
76
7E
6E
6E
66
66
62
00
00
00
ENDCHAR
STARTCHAR C004F
ENCODING -1 79
SWIDTH 429 0
DWIDTH 6 0
BBX 6 14 0 -3
BITMAP
00
38
7C
6C
6C
6C
6C
6C
6C
7C
38
00
00
00
ENDCHAR
STARTCHAR C0050
ENCODING -1 80
SWIDTH 429 0
DWIDTH 6 0
BBX 6 14 0 -3
BITMAP
00
78
7C
6C
6C
6C
7C
78
60
60
60
00
00
00
ENDCHAR
STARTCHAR C0051
ENCODING -1 81
SWIDTH 429 0
DWIDTH 6 0
BBX 6 14 0 -3
BITMAP
00
38
7C
6C
6C
6C
6C
6C
6C
7C
38
1C
0C
00
ENDCHAR
STARTCHAR C0052
ENCODING -1 82
SWIDTH 429 0
DWIDTH 6 0
BBX 6 14 0 -3
BITMAP
00
78
7C
6C
6C
7C
78
7C
6C
6C
6C
00
00
00
ENDCHAR
STARTCHAR C0053
ENCODING -1 83
SWIDTH 429 0
DWIDTH 6 0
BBX 6 14 0 -3
BITMAP
00
38
7C
6C
70
38
1C
6C
6C
7C
38
00
00
00
ENDCHAR
STARTCHAR C0054
ENCODING -1 84
SWIDTH 357 0
DWIDTH 5 0
BBX 5 14 0 -3
BITMAP
00
78
78
30
30
30
30
30
30
30
30
00
00
00
ENDCHAR
STARTCHAR C0055
ENCODING -1 85
SWIDTH 429 0
DWIDTH 6 0
BBX 6 14 0 -3
BITMAP
00
6C
6C
6C
6C
6C
6C
6C
6C
7C
38
00
00
00
ENDCHAR
STARTCHAR C0056
ENCODING -1 86
SWIDTH 429 0
DWIDTH 6 0
BBX 6 14 0 -3
BITMAP
00
44
6C
6C
6C
7C
38
38
38
38
10
00
00
00
ENDCHAR
STARTCHAR C0057
ENCODING -1 87
SWIDTH 714 0
DWIDTH 10 0
BBX 10 14 0 -3
BITMAP
0000
6D80
6D80
6D80
6D80
7F80
3F00
3F00
3300
3300
1200
0000
0000
0000
ENDCHAR
STARTCHAR C0058
ENCODING -1 88
SWIDTH 429 0
DWIDTH 6 0
BBX 6 14 0 -3
BITMAP
00
44
6C
6C
6C
38
38
6C
6C
6C
44
00
00
00
ENDCHAR
STARTCHAR C0059
ENCODING -1 89
SWIDTH 500 0
DWIDTH 7 0
BBX 7 14 0 -3
BITMAP
00
66
66
7E
3C
3C
18
18
18
18
18
00
00
00
ENDCHAR
STARTCHAR C005A
ENCODING -1 90
SWIDTH 500 0
DWIDTH 7 0
BBX 7 14 0 -3
BITMAP
00
7C
7C
0C
18
18
18
30
30
7C
7C
00
00
00
ENDCHAR
STARTCHAR C005B
ENCODING -1 91
SWIDTH 357 0
DWIDTH 5 0
BBX 5 14 0 -3
BITMAP
00
78
78
60
60
60
60
60
60
78
78
00
00
00
ENDCHAR
STARTCHAR C005C
ENCODING -1 92
SWIDTH 500 0
DWIDTH 7 0
BBX 7 14 0 -3
BITMAP
00
60
60
30
30
18
18
0C
0C
06
06
00
00
00
ENDCHAR
STARTCHAR C005D
ENCODING -1 93
SWIDTH 357 0
DWIDTH 5 0
BBX 5 14 0 -3
BITMAP
00
78
78
18
18
18
18
18
18
78
78
00
00
00
ENDCHAR
STARTCHAR C005E
ENCODING -1 94
SWIDTH 500 0
DWIDTH 7 0
BBX 7 14 0 -3
BITMAP
00
18
18
3C
3C
7E
7E
18
18
18
18
00
00
00
ENDCHAR
STARTCHAR C005F
ENCODING -1 95
SWIDTH 1071 0
DWIDTH 15 0
BBX 15 14 0 -3
BITMAP
0000
0000
0000
0780
1FFE
7FFE
1FFE
0780
0180
0000
0000
0000
0000
0000
ENDCHAR
STARTCHAR C0060
ENCODING -1 96
SWIDTH 1071 0
DWIDTH 15 0
BBX 15 14 0 -3
BITMAP
0000
001E
001E
001E
003E
003E
00FC
7FFC
7FF8
7FF0
7FC0
0000
0000
0000
ENDCHAR
STARTCHAR C0061
ENCODING -1 97
SWIDTH 429 0
DWIDTH 6 0
BBX 6 14 0 -3
BITMAP
00
00
00
00
34
7C
6C
6C
6C
7C
34
00
00
00
ENDCHAR
STARTCHAR C0062
ENCODING -1 98
SWIDTH 429 0
DWIDTH 6 0
BBX 6 14 0 -3
BITMAP
00
60
60
60
78
7C
6C
6C
6C
7C
78
00
00
00
ENDCHAR
STARTCHAR C0063
ENCODING -1 99
SWIDTH 429 0
DWIDTH 6 0
BBX 6 14 0 -3
BITMAP
00
00
00
00
3C
7C
60
60
60
7C
3C
00
00
00
ENDCHAR
STARTCHAR C0064
ENCODING -1 100
SWIDTH 429 0
DWIDTH 6 0
BBX 6 14 0 -3
BITMAP
00
0C
0C
0C
3C
7C
6C
6C
6C
7C
3C
00
00
00
ENDCHAR
STARTCHAR C0065
ENCODING -1 101
SWIDTH 429 0
DWIDTH 6 0
BBX 6 14 0 -3
BITMAP
00
00
00
00
38
7C
6C
7C
70
7C
3C
00
00
00
ENDCHAR
STARTCHAR C0066
ENCODING -1 102
SWIDTH 357 0
DWIDTH 5 0
BBX 5 14 0 -3
BITMAP
00
18
38
30
78
78
30
30
30
30
30
00
00
00
ENDCHAR
STARTCHAR C0067
ENCODING -1 103
SWIDTH 429 0
DWIDTH 6 0
BBX 6 14 0 -3
BITMAP
00
00
00
00
3C
7C
6C
6C
6C
7C
3C
0C
3C
38
ENDCHAR
STARTCHAR C0068
ENCODING -1 104
SWIDTH 429 0
DWIDTH 6 0
BBX 6 14 0 -3
BITMAP
00
60
60
60
78
7C
6C
6C
6C
6C
6C
00
00
00
ENDCHAR
STARTCHAR C0069
ENCODING -1 105
SWIDTH 214 0
DWIDTH 3 0
BBX 3 14 0 -3
BITMAP
00
60
60
00
60
60
60
60
60
60
60
00
00
00
ENDCHAR
STARTCHAR C006A
ENCODING -1 106
SWIDTH 286 0
DWIDTH 4 0
BBX 4 14 0 -3
BITMAP
00
30
30
00
30
30
30
30
30
30
30
30
70
60
ENDCHAR
STARTCHAR C006B
ENCODING -1 107
SWIDTH 429 0
DWIDTH 6 0
BBX 6 14 0 -3
BITMAP
00
60
60
60
6C
6C
78
78
78
6C
6C
00
00
00
ENDCHAR
STARTCHAR C006C
ENCODING -1 108
SWIDTH 214 0
DWIDTH 3 0
BBX 3 14 0 -3
BITMAP
00
60
60
60
60
60
60
60
60
60
60
00
00
00
ENDCHAR
STARTCHAR C006D
ENCODING -1 109
SWIDTH 643 0
DWIDTH 9 0
BBX 9 14 0 -3
BITMAP
0000
0000
0000
0000
7F80
7F80
6D80
6D80
6D80
6D80
6D80
0000
0000
0000
ENDCHAR
STARTCHAR C006E
ENCODING -1 110
SWIDTH 429 0
DWIDTH 6 0
BBX 6 14 0 -3
BITMAP
00
00
00
00
78
7C
6C
6C
6C
6C
6C
00
00
00
ENDCHAR
STARTCHAR C006F
ENCODING -1 111
SWIDTH 429 0
DWIDTH 6 0
BBX 6 14 0 -3
BITMAP
00
00
00
00
38
7C
6C
6C
6C
7C
38
00
00
00
ENDCHAR
STARTCHAR C0070
ENCODING -1 112
SWIDTH 429 0
DWIDTH 6 0
BBX 6 14 0 -3
BITMAP
00
00
00
00
78
7C
6C
6C
6C
7C
78
60
60
60
ENDCHAR
STARTCHAR C0071
ENCODING -1 113
SWIDTH 429 0
DWIDTH 6 0
BBX 6 14 0 -3
BITMAP
00
00
00
00
3C
7C
6C
6C
6C
7C
3C
0C
0C
0C
ENDCHAR
STARTCHAR C0072
ENCODING -1 114
SWIDTH 357 0
DWIDTH 5 0
BBX 5 14 0 -3
BITMAP
00
00
00
00
68
78
70
60
60
60
60
00
00
00
ENDCHAR
STARTCHAR C0073
ENCODING -1 115
SWIDTH 429 0
DWIDTH 6 0
BBX 6 14 0 -3
BITMAP
00
00
00
00
38
7C
60
38
0C
7C
38
00
00
00
ENDCHAR
STARTCHAR C0074
ENCODING -1 116
SWIDTH 357 0
DWIDTH 5 0
BBX 5 14 0 -3
BITMAP
00
00
30
30
78
78
30
30
30
30
30
00
00
00
ENDCHAR
STARTCHAR C0075
ENCODING -1 117
SWIDTH 429 0
DWIDTH 6 0
BBX 6 14 0 -3
BITMAP
00
00
00
00
6C
6C
6C
6C
6C
7C
38
00
00
00
ENDCHAR
STARTCHAR C0076
ENCODING -1 118
SWIDTH 429 0
DWIDTH 6 0
BBX 6 14 0 -3
BITMAP
00
00
00
00
6C
6C
6C
6C
38
38
10
00
00
00
ENDCHAR
STARTCHAR C0077
ENCODING -1 119
SWIDTH 643 0
DWIDTH 9 0
BBX 9 14 0 -3
BITMAP
0000
0000
0000
0000
6D80
6D80
6D80
7F80
3F00
3300
3300
0000
0000
0000
ENDCHAR
STARTCHAR C0078
ENCODING -1 120
SWIDTH 429 0
DWIDTH 6 0
BBX 6 14 0 -3
BITMAP
00
00
00
00
6C
6C
38
38
38
6C
6C
00
00
00
ENDCHAR
STARTCHAR C0079
ENCODING -1 121
SWIDTH 429 0
DWIDTH 6 0
BBX 6 14 0 -3
BITMAP
00
00
00
00
6C
6C
6C
38
38
18
30
30
00
00
ENDCHAR
STARTCHAR C007A
ENCODING -1 122
SWIDTH 429 0
DWIDTH 6 0
BBX 6 14 0 -3
BITMAP
00
00
00
00
7C
7C
18
30
30
7C
7C
00
00
00
ENDCHAR
STARTCHAR C007B
ENCODING -1 123
SWIDTH 429 0
DWIDTH 6 0
BBX 6 14 0 -3
BITMAP
00
1C
3C
30
30
70
70
30
30
3C
1C
00
00
00
ENDCHAR
STARTCHAR C007C
ENCODING -1 124
SWIDTH 214 0
DWIDTH 3 0
BBX 3 14 0 -3
BITMAP
00
60
60
60
60
40
00
00
00
00
00
00
00
00
ENDCHAR
STARTCHAR C007D
ENCODING -1 125
SWIDTH 429 0
DWIDTH 6 0
BBX 6 14 0 -3
BITMAP
00
70
78
18
18
1C
1C
18
18
78
70
00
00
00
ENDCHAR
STARTCHAR C007E
ENCODING -1 126
SWIDTH 429 0
DWIDTH 6 0
BBX 6 14 0 -3
BITMAP
00
38
7C
6C
0C
18
30
30
00
30
30
00
00
00
ENDCHAR
STARTCHAR C007F
ENCODING -1 127
SWIDTH 786 0
DWIDTH 11 0
BBX 11 14 0 -3
BITMAP
0000
0000
0000
0000
0020
0460
0CE0
1DC0
3F80
7700
6600
0000
0000
0000
ENDCHAR
ENDFONT
